<?xml version="1.0" encoding="iso-8859-1"?>
<!-- Generator: Adobe Illustrator 19.0.0, SVG Export Plug-In . SVG Version: 6.00 Build 0)  -->
<svg version="1.1" id="Capa_1" xmlns="http://www.w3.org/2000/svg" xmlns:xlink="http://www.w3.org/1999/xlink" x="0px" y="0px"
	 viewBox="0 0 512.008 512.008" style="enable-background:new 0 0 512.008 512.008;" xml:space="preserve">
<g transform="translate(0 -1)">
	<g transform="translate(1 1)">
		<path style="fill:#4E342E;" d="M230.685,163.506c-42.618,32.043-68.188,81.861-69.376,135.168h-0.171
			c0.001,6.789-2.702,13.298-7.509,18.091c-1.595,1.57-3.371,2.945-5.291,4.096c-7.923,4.574-17.685,4.573-25.607-0.004
			s-12.799-13.034-12.793-22.183v-93.867c-0.028-9.414-7.652-17.039-17.067-17.067h-64c-11.782,0-21.333-9.551-21.333-21.333
			c0-11.782,9.551-21.333,21.333-21.333h7.936c-11.679-0.306-20.94-9.947-20.777-21.628c0.164-11.682,9.691-21.06,21.374-21.038
			h16.213c-11.625-0.446-20.752-10.121-20.519-21.752s9.739-20.934,21.373-20.914h7.936c-11.679-0.306-20.94-9.947-20.777-21.628
			c0.164-11.682,9.691-21.06,21.374-21.038h166.4l0.597,0.171c-0.412,1.208-0.614,2.478-0.597,3.755v137.216
			C229.393,160.057,229.832,161.874,230.685,163.506z"/>
		<path style="fill:#795548;" d="M205.085,163.506c-42.618,32.043-68.188,81.861-69.376,135.168h-0.171
			c0.001,6.789-2.702,13.298-7.509,18.091c-1.595,1.57-3.371,2.945-5.291,4.096c-7.931-4.571-12.813-13.033-12.8-22.187v-93.867
			c-0.028-9.414-7.652-17.039-17.067-17.067h-64c-11.782,0-21.333-9.551-21.333-21.333c0-11.782,9.551-21.333,21.333-21.333h7.936
			c-11.679-0.306-20.94-9.947-20.777-21.628c0.164-11.682,9.691-21.06,21.374-21.038h16.213
			c-11.625-0.446-20.752-10.121-20.519-21.752s9.739-20.934,21.373-20.914h7.936c-11.679-0.306-20.94-9.947-20.777-21.628
			c0.164-11.682,9.691-21.06,21.374-21.038h140.8l0.597,0.171c-0.412,1.208-0.614,2.478-0.597,3.755v137.216
			C203.793,160.057,204.232,161.874,205.085,163.506z"/>
		<path style="fill:#6A1B9A;" d="M502.472,150.365V20.317c-0.35-6.824-6.145-12.085-12.971-11.776H242.376
			c-6.826-0.309-12.62,4.952-12.971,11.776v130.048c0.35,6.824,6.145,12.085,12.971,11.776h247.125
			C496.327,162.449,502.121,157.189,502.472,150.365z"/>
		<path style="fill:#9D27B0;" d="M476.872,150.365V20.317c-0.35-6.824-6.145-12.085-12.971-11.776H242.376
			c-6.826-0.309-12.62,4.952-12.971,11.776v130.048c0.35,6.824,6.145,12.085,12.971,11.776h221.525
			C470.727,162.449,476.521,157.189,476.872,150.365z"/>
		<path style="fill:#AD1457;" d="M502.472,349.874c-0.007,84.828-68.772,153.593-153.6,153.6c-4.352,0-8.619-0.171-12.8-0.512
			c-79.594-6.668-140.8-73.216-140.8-153.088s61.206-146.42,140.8-153.088c4.181-0.342,8.448-0.512,12.8-0.512
			C433.7,196.281,502.465,265.046,502.472,349.874z"/>
		<ellipse style="fill:#E91E63;" cx="336.072" cy="349.874" rx="140.8" ry="153.088"/>
		<g>
			<circle style="fill:#FFFFFF;" cx="297.672" cy="315.741" r="17.067"/>
			<circle style="fill:#FFFFFF;" cx="391.538" cy="315.741" r="17.067"/>
		</g>
	</g>
	<g>
		<path d="M490.472,1.008H243.405c-6.834-0.04-13.295,3.117-17.463,8.533H64.005c-11.203-0.04-21.48,6.216-26.59,16.186
			S33.226,47.692,39.8,56.764c-8.798,5.406-14.17,14.983-14.195,25.31c0.034,5.024,1.351,9.957,3.827,14.329
			c-9.136,2.81-16.352,9.859-19.375,18.927s-1.48,19.037,4.143,26.767c-11.371,6.988-16.708,20.685-13.061,33.524
			s15.386,21.686,28.733,21.653h64c4.712,0.003,8.53,3.822,8.533,8.533v93.867c-0.032,17.229,12.803,31.77,29.903,33.877
			c17.1,2.107,33.081-8.883,37.233-25.604c0.711-1.218,1.1-2.597,1.131-4.007c0.128-52.417,24.886-101.726,66.85-133.136
			c1.914,0.55,3.892,0.842,5.883,0.869h247.067c11.558,0.306,21.186-8.793,21.533-20.35V21.358
			C511.658,9.801,502.029,0.701,490.472,1.008z M153.757,298.919c-0.024,0.261-0.152,0.487-0.152,0.755
			c0,9.426-7.641,17.067-17.067,17.067c-9.426,0-17.067-7.641-17.067-17.067v-93.867c-0.015-14.132-11.468-25.585-25.6-25.6h-64
			c-7.069,0-12.8-5.731-12.8-12.8c0-7.069,5.731-12.8,12.8-12.8h64c4.713,0,8.533-3.821,8.533-8.533
			c0-4.713-3.821-8.533-8.533-8.533H38.405c-7.069,0-12.8-5.731-12.8-12.8s5.731-12.8,12.8-12.8h72.533
			c4.713,0,8.533-3.821,8.533-8.533c0-4.713-3.821-8.533-8.533-8.533H55.472c-7.069,0-12.8-5.731-12.8-12.8
			c0-7.069,5.731-12.8,12.8-12.8h64c4.713,0,8.533-3.821,8.533-8.533s-3.821-8.533-8.533-8.533H64.005
			c-7.069,0-12.8-5.731-12.8-12.8s5.731-12.8,12.8-12.8h157.867v124.717c0.014,2.931,0.698,5.819,1.999,8.445
			C181.035,193.472,155.355,244.438,153.757,298.919z M290.138,154.608h-46.733c-2.383,0-4.467-1.533-4.467-3.283V21.358
			c0-1.75,2.083-3.283,4.467-3.283h46.733V154.608z M494.938,151.324c0,1.75-2.083,3.283-4.467,3.283H307.205V18.074h183.267
			c2.383,0,4.467,1.533,4.467,3.283V151.324z"/>
		<path d="M76.805,419.141c2.264,0.001,4.435-0.897,6.035-2.498c1.601-1.601,2.499-3.772,2.498-6.035v-8.533
			c0-4.713-3.821-8.533-8.533-8.533c-4.713,0-8.533,3.82-8.533,8.533v8.533c-0.001,2.264,0.897,4.435,2.498,6.035
			C72.37,418.244,74.541,419.142,76.805,419.141z"/>
		<path d="M76.805,436.208c-2.264-0.001-4.435,0.897-6.035,2.498c-1.601,1.601-2.499,3.772-2.498,6.035v8.533
			c0,4.713,3.82,8.533,8.533,8.533c4.713,0,8.533-3.82,8.533-8.533v-8.533c0.001-2.264-0.897-4.435-2.498-6.035
			C81.24,437.105,79.068,436.206,76.805,436.208z"/>
		<path d="M59.738,419.141h-8.533c-4.713,0-8.533,3.82-8.533,8.533s3.821,8.533,8.533,8.533h8.533c4.713,0,8.533-3.82,8.533-8.533
			S64.451,419.141,59.738,419.141z"/>
		<path d="M102.405,419.141h-8.533c-4.713,0-8.533,3.82-8.533,8.533s3.821,8.533,8.533,8.533h8.533c4.713,0,8.533-3.82,8.533-8.533
			S107.118,419.141,102.405,419.141z"/>
		<path d="M349.872,188.741c-89.544,0-162.133,72.59-162.133,162.133s72.59,162.133,162.133,162.133s162.133-72.59,162.133-162.133
			C511.903,261.373,439.373,188.843,349.872,188.741z M349.872,495.941c-80.118,0-145.067-64.949-145.067-145.067
			s64.949-145.067,145.067-145.067s145.067,64.949,145.067,145.067C494.849,430.955,429.953,495.852,349.872,495.941z"/>
		<path d="M324.272,316.741c0-14.138-11.462-25.6-25.6-25.6s-25.6,11.462-25.6,25.6c0,14.138,11.462,25.6,25.6,25.6
			C312.804,342.325,324.256,330.873,324.272,316.741z M290.138,316.741c0-4.713,3.82-8.533,8.533-8.533s8.533,3.82,8.533,8.533
			s-3.82,8.533-8.533,8.533C293.96,325.271,290.141,321.452,290.138,316.741z"/>
		<path d="M392.538,342.341c14.138,0,25.6-11.462,25.6-25.6c0-14.138-11.462-25.6-25.6-25.6s-25.6,11.462-25.6,25.6
			C366.954,330.873,378.406,342.325,392.538,342.341z M392.538,308.208c4.713,0,8.533,3.82,8.533,8.533s-3.82,8.533-8.533,8.533
			s-8.533-3.821-8.533-8.533C384.008,312.029,387.827,308.211,392.538,308.208z"/>
		<path d="M401.497,393.882c-6.792-6.243-14.696-11.156-23.3-14.483c-18.237-7-38.421-7-56.658,0
			c-8.599,3.328-16.497,8.241-23.283,14.483c-6.686,6.102-12.084,13.48-15.875,21.7c-1.965,4.285-0.085,9.352,4.2,11.317
			c4.285,1.965,9.352,0.085,11.317-4.2c2.848-6.162,6.9-11.693,11.917-16.267c5.224-4.798,11.301-8.575,17.917-11.133
			c14.255-5.45,30.02-5.45,44.275,0c6.621,2.558,12.704,6.335,17.933,11.133c5.012,4.576,9.06,10.106,11.908,16.267
			c1.271,2.772,3.925,4.655,6.961,4.94c3.036,0.285,5.994-1.072,7.758-3.558c1.765-2.487,2.069-5.726,0.798-8.498
			C413.572,407.365,408.178,399.987,401.497,393.882z"/>
	</g>
</g>
<g>
</g>
<g>
</g>
<g>
</g>
<g>
</g>
<g>
</g>
<g>
</g>
<g>
</g>
<g>
</g>
<g>
</g>
<g>
</g>
<g>
</g>
<g>
</g>
<g>
</g>
<g>
</g>
<g>
</g>
</svg>
