<?xml version="1.0" encoding="iso-8859-1"?>
<!-- Generator: Adobe Illustrator 19.0.0, SVG Export Plug-In . SVG Version: 6.00 Build 0)  -->
<svg version="1.1" id="Capa_1" xmlns="http://www.w3.org/2000/svg" xmlns:xlink="http://www.w3.org/1999/xlink" x="0px" y="0px"
	 viewBox="0 0 512 512" style="enable-background:new 0 0 512 512;" xml:space="preserve">
<circle style="fill:#FFAA20;" cx="256" cy="256" r="256"/>
<path style="fill:#FF8A00;" d="M512,256c0-6.399-0.242-12.742-0.704-19.023L364.832,90.694c-5.997-6.155-15.75-4.779-28.066,9.206
	c-36.532,41.48-90.112,77.09-90.112,77.09h-9.904l-13.91-15.125H87.667v229.462l115.119,115.119
	C219.954,510.076,237.751,512,256,512C397.385,512,512,397.385,512,256z"/>
<path style="fill:#FFFFFF;" d="M441.898,251.921c0-8.432-3.624-16.044-9.446-21.482c7.231-5.477,11.881-13.978,11.881-23.531
	c0-16.523-13.894-29.918-31.033-29.918h-67.267c5.455-6.25,12.378-15.548,17.34-27.001c18.478-42.654,3.679-84.476-26.606-50.089
	c-36.532,41.48-90.112,77.09-90.112,77.09h-25.978v192.953h185.618c11.732-4.27,20.078-15.19,20.078-27.994
	c0-6.695-2.282-12.875-6.135-17.859c10.631-4.747,18.008-15.117,18.008-27.154c0-8.171-3.402-15.574-8.91-20.973
	C436.957,270.511,441.898,261.773,441.898,251.921z"/>
<path style="fill:#FFF5CA;" d="M406.293,369.943c11.732-4.27,20.078-15.19,20.078-27.994c0-6.695-2.282-12.875-6.135-17.859
	c10.631-4.747,18.008-15.117,18.008-27.154c0-7.859-3.152-15.001-8.293-20.339H220.676v93.347h185.617V369.943z"/>
<rect x="87.67" y="161.87" style="fill:#0089FF;" width="135.17" height="229.46"/>
<rect x="87.67" y="276.6" style="fill:#005ED2;" width="135.17" height="114.73"/>
<g>
</g>
<g>
</g>
<g>
</g>
<g>
</g>
<g>
</g>
<g>
</g>
<g>
</g>
<g>
</g>
<g>
</g>
<g>
</g>
<g>
</g>
<g>
</g>
<g>
</g>
<g>
</g>
<g>
</g>
</svg>
