<?xml version="1.0" encoding="iso-8859-1"?>
<!-- Generator: Adobe Illustrator 19.0.0, SVG Export Plug-In . SVG Version: 6.00 Build 0)  -->
<svg version="1.1" id="Capa_1" xmlns="http://www.w3.org/2000/svg" xmlns:xlink="http://www.w3.org/1999/xlink" x="0px" y="0px"
	 viewBox="0 0 512 512" style="enable-background:new 0 0 512 512;" xml:space="preserve">
<circle style="fill:#00AD95;" cx="256" cy="256" r="256"/>
<g>
	<path style="fill:#006659;" d="M189.789,229.958c-25.116,34.706-45.31,50.353-45.31,50.353h-0.789v-0.042h-6.5v-6.5H0.624
		c0.024,0.347,0.041,0.697,0.066,1.044c0.047,0.643,0.097,1.285,0.149,1.927c0.12,1.492,0.252,2.98,0.396,4.464
		c0.041,0.418,0.076,0.838,0.119,1.255c0.189,1.837,0.4,3.667,0.628,5.491c0.068,0.546,0.141,1.09,0.212,1.635
		c0.196,1.492,0.404,2.98,0.625,4.464c0.065,0.437,0.126,0.875,0.193,1.312c0.282,1.827,0.584,3.647,0.905,5.461
		c0.086,0.486,0.177,0.969,0.266,1.454c0.264,1.445,0.54,2.886,0.828,4.323c0.102,0.507,0.201,1.016,0.305,1.522
		c0.365,1.764,0.747,3.521,1.148,5.271c0.116,0.508,0.24,1.012,0.359,1.519c0.31,1.314,0.629,2.624,0.959,3.929
		c0.162,0.643,0.324,1.286,0.491,1.927c0.423,1.622,0.858,3.239,1.312,4.848c0.194,0.686,0.398,1.366,0.597,2.05
		c0.3,1.033,0.606,2.064,0.919,3.091c0.266,0.871,0.535,1.741,0.81,2.609c0.249,0.788,0.508,1.571,0.765,2.355
		c0.596,1.817,1.21,3.626,1.845,5.425c0.14,0.396,0.277,0.793,0.419,1.189c0.449,1.254,0.91,2.502,1.377,3.747
		c0.182,0.483,0.366,0.966,0.55,1.448c0.452,1.181,0.908,2.361,1.378,3.534c0.184,0.459,0.374,0.915,0.561,1.372
		c0.872,2.143,1.772,4.27,2.7,6.384c0.245,0.557,0.483,1.118,0.732,1.673c0.432,0.966,0.878,1.925,1.322,2.885
		c0.342,0.738,0.684,1.477,1.033,2.211c0.433,0.914,0.872,1.824,1.315,2.732c0.385,0.788,0.778,1.572,1.171,2.356
		c0.433,0.862,0.863,1.726,1.306,2.583c0.517,1.002,1.048,1.996,1.578,2.991c0.654,1.227,1.318,2.446,1.991,3.661
		c0.49,0.885,0.98,1.77,1.48,2.648c0.457,0.802,0.923,1.599,1.389,2.396c0.473,0.81,0.95,1.618,1.432,2.423
		c0.476,0.795,0.954,1.588,1.439,2.378c0.505,0.822,1.018,1.638,1.532,2.454c0.473,0.751,0.942,1.506,1.422,2.252
		c0.904,1.404,1.822,2.798,2.754,4.183c0.512,0.762,1.037,1.515,1.558,2.272c0.522,0.758,1.043,1.516,1.573,2.269
		c0.555,0.789,1.117,1.572,1.681,2.355c0.512,0.71,1.028,1.416,1.546,2.12c0.578,0.785,1.157,1.57,1.744,2.349
		C98.227,471.953,172.433,512,256,512c66.597,0,127.248-25.436,172.785-67.116L210.37,226.575
		C205.147,220.227,197.323,219.547,189.789,229.958z"/>
	<path style="fill:#006659;" d="M464.967,108.09h-0.015c-0.588-0.829-1.183-1.652-1.779-2.474c-0.335-0.46-0.669-0.922-1.006-1.38
		c-0.55-0.749-1.104-1.496-1.663-2.238c-0.103-0.137-0.21-0.272-0.313-0.408h-85.38v9.651H269.012
		c-7.06,2.665-12.083,9.482-12.083,17.475c0,4.179,1.373,8.037,3.692,11.148c-6.397,2.964-10.837,9.437-10.837,16.951
		c0,5.101,2.047,9.722,5.362,13.092c-4.587,3.403-7.56,8.857-7.56,15.007c0,5.263,2.181,10.015,5.684,13.41
		c-4.352,3.419-7.15,8.726-7.15,14.689c0,5.119,2.066,9.747,5.405,13.116l44.273,44.149c0.89,7.12,3.548,13.145,7.194,16.611
		l141.89,141.898C486.563,383.25,512,322.598,512,256C512,200.896,494.587,149.861,464.967,108.09z"/>
</g>
<path style="fill:#FFDCA8;" d="M264.414,327.086c0-5.263-2.181-10.015-5.684-13.41c4.351-3.419,7.15-8.726,7.15-14.689
	c0-10.314-8.361-18.676-18.675-18.676h-42.92c3.283-3.901,5.808-8.954,8.794-16.104c11.12-26.626-6.781-57.062-23.29-34.249
	c-25.116,34.706-45.309,50.353-45.309,50.353h-15.633v120.447h114.142c7.06-2.665,12.083-9.482,12.083-17.475
	c0-4.179-1.373-8.037-3.692-11.148c6.397-2.964,10.837-9.437,10.837-16.951c0-5.101-2.047-9.722-5.362-13.092
	C261.441,338.69,264.414,333.236,264.414,327.086z"/>
<path style="fill:#FFC56E;" d="M242.989,400.756c7.056-2.659,12.084-9.482,12.084-17.472c0-4.176-1.377-8.035-3.695-11.149
	c6.399-2.962,10.84-9.437,10.84-16.948c0-5.104-2.047-9.722-5.363-13.095H128.846v58.667h114.143L242.989,400.756L242.989,400.756z"
	/>
<path style="fill:#FF328E;" d="M137.19,273.77v136.64H51.8c-15.58-20.57-28.12-43.56-36.95-68.32
	c-7.72-21.58-12.61-44.5-14.24-68.32L137.19,273.77L137.19,273.77z"/>
<path style="fill:#C50A5B;" d="M137.19,342.09v68.32H51.8c-15.58-20.57-28.12-43.56-36.95-68.32H137.19z"/>
<path style="fill:#FFC56E;" d="M247.586,184.914c0,5.264,2.181,10.015,5.684,13.41c-4.352,3.419-7.15,8.726-7.15,14.689
	c0,10.314,8.361,18.676,18.675,18.676h42.92c-3.283,3.901-5.808,8.954-8.794,16.104c-11.12,26.626,6.781,57.062,23.29,34.249
	c25.116-34.706,45.31-50.353,45.31-50.353h15.633V111.242H269.012c-7.06,2.665-12.083,9.482-12.083,17.475
	c0,4.179,1.373,8.037,3.692,11.148c-6.397,2.964-10.837,9.437-10.837,16.951c0,5.101,2.047,9.722,5.362,13.092
	C250.559,173.31,247.586,178.764,247.586,184.914z"/>
<path style="fill:#FFDCA8;" d="M269.011,111.244c-7.056,2.659-12.084,9.482-12.084,17.472c0,4.175,1.377,8.035,3.695,11.149
	c-6.399,2.962-10.84,9.437-10.84,16.948c0,5.104,2.047,9.722,5.363,13.095h128.008v-58.667H269.011V111.244z"/>
<path style="fill:#451152;" d="M511.39,238.23H374.81V101.59h85.39c15.58,20.57,28.12,43.56,36.95,68.32
	C504.87,191.49,509.76,214.41,511.39,238.23z"/>
<path style="fill:#802897;" d="M497.15,169.91H374.81v-68.32h85.39C475.78,122.16,488.32,145.15,497.15,169.91z"/>
<g>
</g>
<g>
</g>
<g>
</g>
<g>
</g>
<g>
</g>
<g>
</g>
<g>
</g>
<g>
</g>
<g>
</g>
<g>
</g>
<g>
</g>
<g>
</g>
<g>
</g>
<g>
</g>
<g>
</g>
</svg>
